<svg width="183" height="56" viewBox="0 0 183 56" fill="none" xmlns="http://www.w3.org/2000/svg"><mask id="mask0" maskUnits="userSpaceOnUse" x="2" y="2" width="179" height="53"><path d="M2.5 26H8.81818V19.0909H12.3182C17.625 19.0909 21.1818 15.9659 21.1818 10.9545C21.1818 6 17.7159 2.72727 12.5455 2.72727H2.5V26ZM8.81818 14.1818V7.77273H11.0455C13.2614 7.77273 14.5909 8.95454 14.5909 10.9545C14.5909 12.9432 13.2614 14.1818 11.0455 14.1818H8.81818ZM26.6392 26L27.9801 21.5455H35.6619L37.0028 26H43.821L36.1392 2.72727H27.5028L19.821 26H26.6392ZM29.4119 16.8182L31.7301 9.13636H31.9119L34.2301 16.8182H29.4119ZM66.696 11.4545C66.196 5.68182 61.9688 2.40909 56.1051 2.40909C49.8324 2.40909 44.8778 6.59091 44.8778 14.3636C44.8778 22.1023 49.696 26.3182 56.1051 26.3182C62.9233 26.3182 66.3778 21.5909 66.696 17.6364L60.2869 17.5909C59.9688 19.5795 58.5597 20.8182 56.2415 20.8182C53.1619 20.8182 51.3778 18.6364 51.3778 14.3636C51.3778 10.3182 53.1051 7.90909 56.2869 7.90909C58.7188 7.90909 60.1051 9.34091 60.2869 11.4545H66.696ZM83.7443 26H91.7443L82.608 14.4091L93.2898 2.72727H84.9716L76.9716 11.5H75.8807V2.72727H69.5625V26H75.8807V16.5909H76.4716L83.7443 26ZM94.9688 26H101.287V19.0909H104.787C110.094 19.0909 113.651 15.9659 113.651 10.9545C113.651 6 110.185 2.72727 105.014 2.72727H94.9688V26ZM101.287 14.1818V7.77273H103.514C105.73 7.77273 107.06 8.95454 107.06 10.9545C107.06 12.9432 105.73 14.1818 103.514 14.1818H101.287ZM119.108 26L120.449 21.5455H128.131L129.472 26H136.29L128.608 2.72727H119.972L112.29 26H119.108ZM121.881 16.8182L124.199 9.13636H124.381L126.699 16.8182H121.881ZM159.165 11.4545C158.665 5.68182 154.438 2.40909 148.574 2.40909C142.301 2.40909 137.347 6.59091 137.347 14.3636C137.347 22.1023 142.165 26.3182 148.574 26.3182C155.392 26.3182 158.847 21.5909 159.165 17.6364L152.756 17.5909C152.438 19.5795 151.028 20.8182 148.71 20.8182C145.631 20.8182 143.847 18.6364 143.847 14.3636C143.847 10.3182 145.574 7.90909 148.756 7.90909C151.188 7.90909 152.574 9.34091 152.756 11.4545H159.165ZM168.486 10.5455V2.72727H162.168V26H170.849C176.724 26 180.634 22.8182 180.622 18.1818C180.634 13.5455 176.724 10.5455 170.849 10.5455H168.486ZM168.486 15.3636H170.849C173.134 15.3636 174.361 16.5455 174.349 18.1364C174.361 19.8182 173.134 21.0455 170.849 21.0455H168.486V15.3636Z" fill="#576AFF"/><path d="M22.8636 30.7273H2.54545V54H8.77273V35.7273H16.6364V54H22.8636V30.7273ZM29.0135 54H30.559C36.4681 54 38.6953 51.0909 39.1044 42.9545L39.4681 35.6364H44.4226V54H50.5135V30.7273H33.6499L33.2863 40.5C33.059 46.7273 31.9681 48.6818 29.6499 49.0455L29.0135 49.1364V54ZM62.4305 54L63.7714 49.5455H71.4532L72.7941 54H79.6123L71.9305 30.7273H63.2941L55.6123 54H62.4305ZM65.2032 44.8182L67.5214 37.1364H67.7032L70.0214 44.8182H65.2032ZM84.7337 54H91.0519V44.9091H99.4156V54H105.734V30.7273H99.4156V39.8182H91.0519V30.7273H84.7337V54ZM111.614 54H128.341V48.9091H117.932V44.9091H127.523V39.8182H117.932V35.8182H128.386V30.7273H111.614V54ZM133.764 35.8182H140.764V54H146.991V35.8182H153.991V30.7273H133.764V35.8182ZM162.612 54.3182H164.521C168.521 54.3182 170.385 51.7727 171.703 48.9091L179.703 30.7273H173.34L169.612 40.1818L164.749 30.7273H158.294L167.021 46.7727L166.794 47.4545C166.34 49 165.749 49.4091 163.749 49.4091H162.612V54.3182Z" fill="#576AFF"/></mask><path fill="#C4C4C4" d="M1 -1H179V57H1z"/><path transform="rotate(22.58 5.134 -69)" fill="#576AFF" d="M5.134 -69H79.044V58.962999999999994H5.134z"/><path transform="rotate(22.58 73.378 -40.621)" fill="#FFC83D" d="M73.378 -40.621H147.288V87.34199999999998H73.378z"/><path transform="rotate(22.58 141.623 -12.242)" fill="#FF5927" d="M141.623 -12.242H215.533V115.72099999999999H141.623z"/></svg>