<svg width="60" height="65" viewBox="0 0 60 65" fill="none" xmlns="http://www.w3.org/2000/svg"><path d="M27.4297 5.99665H32.6428C33.2011 5.99665 33.6533 5.54415 33.6533 4.98615C33.6533 4.42802 33.2011 3.97565 32.6428 3.97565H27.4297C26.8714 3.97565 26.4192 4.42815 26.4192 4.98615C26.4192 5.54415 26.8714 5.99665 27.4297 5.99665Z"/><path d="M59.9498 56.657L56.612 10.2609C56.5775 10.1191 55.7317 6.77238 52.4067 5.35925C50 4.3365 42.3885 1.44687 40.4827 0.72525C40.3091 0.584625 40.0881 0.5 39.8472 0.5H39.7025H20.2978C20.2654 0.5 20.2332 0.50175 20.201 0.504875C20.1871 0.50625 20.1735 0.508625 20.1597 0.5105C20.1421 0.512875 20.1245 0.51525 20.1069 0.518625C20.0905 0.52175 20.0744 0.525875 20.0583 0.52975C20.0439 0.53325 20.0294 0.53675 20.015 0.54075C19.9982 0.545625 19.982 0.55125 19.9655 0.556875C19.9571 0.559875 19.9486 0.562 19.9403 0.565125C19.5478 0.7135 10.2937 4.2115 7.59324 5.35925C4.39649 6.718 3.492 9.8625 3.39637 10.2288C3.39462 10.2356 3.39312 10.2414 3.39174 10.2463C3.38999 10.2529 3.38874 10.2581 3.38812 10.2606L0.91712 52.4412L0.498415 56.6632C0.37954 57.1526 0.63929 57.6547 1.10741 57.8407L10.4536 61.7106V59.3814V63.4895C10.4536 64.0477 10.906 64.5 11.4641 64.5H48.5357C49.094 64.5 49.5462 64.0477 49.5462 63.4895V59.3814V40.141C49.5462 39.5829 49.094 39.1305 48.5357 39.1305C47.9775 39.1305 47.5252 39.583 47.5252 40.141V58.3708H22.69C22.1318 58.3708 21.6795 58.8231 21.6795 59.3812C21.6795 59.9394 22.1318 60.3918 22.69 60.3918H47.5254V62.4789H12.4749V60.3918H19.3216C19.8799 60.3918 20.3321 59.9392 20.3321 59.3812C20.3321 58.823 19.8799 58.3708 19.3216 58.3708H12.4749V29.0245V24.6912V16.8608C12.4749 16.6764 12.4245 16.4956 12.3291 16.3379L7.23286 7.90975C7.56186 7.64537 7.94324 7.40675 8.38411 7.21938C10.453 6.34013 16.6567 3.97337 19.3657 2.94462C20.0156 8.91675 24.654 13.7198 30.0726 13.7198C35.4751 13.7198 40.1026 8.945 40.774 2.99738C43.5509 4.05237 49.5821 6.35475 51.6164 7.21925C52.0572 7.40663 52.4385 7.64525 52.7676 7.90963L47.6715 16.3376C47.5761 16.4954 47.5257 16.6763 47.5257 16.8605V24.691V29.0244V36.7725C47.5257 37.3307 47.9781 37.783 48.5362 37.783C49.0945 37.783 49.5467 37.3307 49.5467 36.7725V61.7103L59.3412 57.8342C59.8088 57.6485 60.0686 57.1463 59.9498 56.657ZM10.4539 59.5358L2.28896 56.3L2.60174 54.07L10.4537 57.3631L10.4539 59.5358ZM10.4539 17.1424V55.1715L3.08462 52.0809L5.35136 10.742C5.35424 10.7306 5.49186 10.2095 5.86311 9.55025L10.4539 17.1424ZM30.0725 11.6986C26.0784 11.6986 21.8179 8.053 21.3506 2.521H38.7946C38.3271 8.05312 34.0666 11.6986 30.0725 11.6986ZM49.5465 17.1424L54.1374 9.55C54.3805 9.98163 54.5236 10.3539 54.5936 10.5614L54.5942 10.5632C54.6009 10.5829 54.6066 10.6007 54.612 10.6173C54.613 10.6204 54.614 10.6236 54.615 10.6266C54.6191 10.6398 54.6229 10.6515 54.6261 10.6624C54.6275 10.6665 54.6289 10.6711 54.63 10.675C54.6327 10.6839 54.635 10.6917 54.637 10.6987C54.638 10.702 54.639 10.7059 54.6399 10.7087C54.6415 10.7144 54.6427 10.7188 54.6437 10.7227C54.6444 10.7251 54.6459 10.7303 54.6459 10.7303C54.6469 10.7338 54.6477 10.7375 54.6477 10.7375L56.9156 52.081L49.5464 55.1716L49.5465 17.1424ZM49.5465 59.5358V57.3631L57.3985 54.07L57.6549 56.2517L49.5465 59.5358Z"/></svg>