<svg width="53" height="65" viewBox="0 0 53 65" fill="none" xmlns="http://www.w3.org/2000/svg"><path d="M51.3665 33.3454C50.8084 33.3454 50.356 33.7977 50.356 34.3559V47.2234L45.0079 48.6746V23.4316C45.0079 22.8734 44.5557 22.4211 43.9974 22.4211C43.4392 22.4211 42.9869 22.8734 42.9869 23.4316V49.9958V55.7135V58.1172H18.4098C17.8517 58.1172 17.3993 58.5696 17.3993 59.1278C17.3993 59.686 17.8518 60.1382 18.4098 60.1382H42.9869V62.4789H10.013V60.1384H15.1089C15.667 60.1384 16.1194 59.686 16.1194 59.1279C16.1194 58.5698 15.6669 58.1174 15.1089 58.1174H10.013V55.7136V49.9959V23.4317C10.013 22.8735 9.56055 22.4212 9.00255 22.4212C8.44442 22.4212 7.99205 22.8736 7.99205 23.4317V48.6748L2.64405 47.2235V17.2798C2.64405 14.2476 6.25017 11.8516 9.50305 10.3731C9.52042 10.3664 9.5383 10.3617 9.55542 10.3541C11.0908 9.66687 12.4522 9.223 13.0805 9.03213L19.2683 12.2329V28.3197C19.2683 28.878 19.7208 29.3302 20.2788 29.3302C20.8369 29.3302 21.2893 28.878 21.2893 28.3197V13.2781L26.0354 15.7331C26.3265 15.8839 26.6727 15.8839 26.964 15.7331L32.0064 13.125V28.3196C32.0064 28.8779 32.4588 29.3301 33.0169 29.3301C33.575 29.3301 34.0274 28.8778 34.0274 28.3196V12.0795L39.9192 9.03187C40.566 9.22837 41.989 9.6925 43.5795 10.4145C43.596 10.4219 43.6128 10.4272 43.6295 10.4338C46.8472 11.9167 50.356 14.2889 50.356 17.2796V30.9206C50.356 31.4789 50.8083 31.9311 51.3665 31.9311C51.9248 31.9311 52.377 31.4789 52.377 30.9206V17.2798C52.377 13.2049 48.2808 10.401 44.8128 8.757C42.3664 1.85738 37.67 0.58325 37.4673 0.5315C37.4479 0.5265 37.4283 0.524375 37.4089 0.520625C37.39 0.517 37.3714 0.512625 37.3522 0.510125C37.3192 0.505625 37.2863 0.503875 37.2533 0.502875C37.2412 0.50225 37.2294 0.5 37.2172 0.5H15.9163C15.9159 0.5 15.9155 0.5 15.9149 0.5H15.9008C15.8899 0.5 15.8794 0.502 15.8684 0.502375C15.834 0.5035 15.7998 0.505375 15.7655 0.51C15.7463 0.5125 15.7275 0.516875 15.7087 0.520625C15.6893 0.524375 15.6695 0.5265 15.6503 0.5315C15.449 0.583 10.7844 1.85025 8.33105 8.68913C4.83355 10.3232 0.623047 13.1482 0.623047 17.2795V47.9961V53.7141C0.623047 54.1704 0.928672 54.57 1.36892 54.6894L7.99205 56.4865V59.1279V63.4893C7.99205 64.0475 8.44455 64.4997 9.00255 64.4997H43.9974C44.5557 64.4997 45.0079 64.0475 45.0079 63.4893V59.1276V56.4863L51.6312 54.6891C52.0715 54.5696 52.377 54.17 52.377 53.7139V47.9963V34.3559C52.3772 33.7976 51.9248 33.3454 51.3665 33.3454ZM26.5588 11.0639L22.7633 7.14437H30.3545L26.5588 11.0639ZM37.4844 2.68712C38.4448 3.1215 40.551 4.39388 42.1585 7.64913C41.0654 7.24963 40.281 7.02875 40.1008 6.9795C40.0892 6.97637 40.0804 6.974 40.0767 6.97288C40.0157 6.9565 39.9538 6.94587 39.8917 6.94112C39.7053 6.92675 39.5177 6.96413 39.3495 7.05125L33.9675 9.83525C33.8277 9.44475 33.4555 9.16512 33.017 9.16512C32.4588 9.16512 32.0065 9.6175 32.0065 10.1756V10.8497L27.1443 13.3647L27.2848 13.2196L33.4655 6.83725C33.4657 6.83725 33.4657 6.83712 33.4658 6.837L35.7537 4.4745L37.4844 2.68712ZM34.8318 2.521L33.5394 3.85562L32.3115 5.12337H20.8059L18.2859 2.52113H34.8318V2.521ZM15.6328 2.6865L25.152 12.5166L24.9214 12.7549L24.8397 12.8392L21.2895 11.0028V10.1755C21.2895 9.61725 20.837 9.165 20.279 9.165C19.7919 9.165 19.3854 9.50963 19.2899 9.96838L13.6503 7.05125C13.6174 7.03425 13.5838 7.01975 13.5497 7.0065C13.5392 7.0025 13.5287 6.99913 13.5182 6.9955C13.4935 6.98688 13.4687 6.97925 13.4437 6.97262C13.432 6.9695 13.4205 6.96662 13.4087 6.96387C13.381 6.95762 13.3533 6.95275 13.3253 6.94875C13.317 6.94763 13.3092 6.94588 13.3009 6.945C13.265 6.94088 13.229 6.93875 13.193 6.9385C13.1908 6.9385 13.1885 6.93813 13.1863 6.93813C13.1805 6.93813 13.1747 6.93925 13.1689 6.93937C13.1365 6.93988 13.1044 6.94213 13.0722 6.94575C13.0615 6.947 13.051 6.94812 13.0404 6.94963C13.0012 6.95525 12.9623 6.96263 12.9235 6.973C12.8052 7.00488 12.0582 7.2105 10.9863 7.5965C12.5905 4.37475 14.6749 3.11762 15.6328 2.6865ZM7.99205 54.3925L2.64405 52.9414V49.3176L7.99205 50.769V54.3925ZM50.356 52.9414L45.0079 54.3925V50.769L50.356 49.3176V52.9414Z"/><path d="M33.8074 37.9966C33.8074 37.4383 33.3552 36.9861 32.7969 36.9861H20.3204C19.7623 36.9861 19.3099 37.4383 19.3099 37.9966C19.3099 41.1333 17.5843 43.9948 14.8067 45.4638C14.4757 45.6388 14.2686 45.9827 14.2686 46.3571V54.2545C14.2686 54.8127 14.7211 55.265 15.2791 55.265H37.8384C38.3967 55.265 38.8489 54.8126 38.8489 54.2545V46.3573C38.8489 45.983 38.6418 45.6391 38.3108 45.4641C35.533 43.9951 33.8074 41.1336 33.8074 37.9966ZM36.8279 53.244H36.8278H16.2897V46.9455C19.1261 45.2268 20.9669 42.2878 21.2828 39.0072H31.835C32.1507 42.2881 33.9918 45.2272 36.8282 46.946V53.244H36.8279Z"/></svg>