<svg width="33" height="33" viewBox="0 0 33 33" fill="none" xmlns="http://www.w3.org/2000/svg">
<path fill-rule="evenodd" clip-rule="evenodd" d="M12.0213 0.93335H21.8449C30.8103 0.93335 32.9331 3.05614 32.9331 12.0216V21.8451C32.9331 30.8106 30.8103 32.9333 21.8449 32.9333H12.0213C3.0559 32.9333 0.933105 30.8106 0.933105 21.8451V12.0216C0.933105 3.05614 3.0559 0.93335 12.0213 0.93335Z" fill="#4680C2"/>
<path fill-rule="evenodd" clip-rule="evenodd" d="M27.1296 11.9539C27.2876 11.457 27.1296 11.0957 26.4295 11.0957H24.1034C23.5163 11.0957 23.2453 11.4119 23.0872 11.7506C23.0872 11.7506 21.8903 14.6412 20.2192 16.5156C19.6772 17.0576 19.4288 17.2383 19.1352 17.2383C18.9771 17.2383 18.7739 17.0576 18.7739 16.5608V11.9313C18.7739 11.3441 18.5932 11.0731 18.0964 11.0731H14.438C14.0766 11.0731 13.8508 11.3441 13.8508 11.6151C13.8508 12.1797 14.6864 12.3152 14.7767 13.896V17.3286C14.7767 18.0738 14.6412 18.2093 14.3476 18.2093C13.5572 18.2093 11.6377 15.2961 10.4859 11.9764C10.2601 11.3215 10.0343 11.0731 9.44713 11.0731H7.09851C6.42102 11.0731 6.30811 11.3893 6.30811 11.728C6.30811 12.3378 7.09851 15.409 9.98912 19.474C11.9087 22.2517 14.6412 23.7421 17.1027 23.7421C18.5932 23.7421 18.7739 23.4034 18.7739 22.8388V20.7386C18.7739 20.0611 18.9094 19.9482 19.3836 19.9482C19.7224 19.9482 20.3321 20.1289 21.7097 21.4613C23.2905 23.0421 23.5615 23.7647 24.4422 23.7647H26.7682C27.4457 23.7647 27.7619 23.426 27.5812 22.7711C27.378 22.1162 26.6101 21.1677 25.6165 20.0385C25.0745 19.4062 24.2615 18.7061 24.0131 18.3674C23.6744 17.9157 23.7647 17.7351 24.0131 17.3286C23.9905 17.3286 26.836 13.3088 27.1296 11.9539Z" fill="white"/>
</svg>
