<svg width="30" height="28" viewBox="0 0 30 28" fill="none" xmlns="http://www.w3.org/2000/svg">
<path d="M26.7868 4.1467C26.1058 3.46538 25.2972 2.9249 24.4073 2.55615C23.5173 2.1874 22.5634 1.9976 21.6001 1.9976C20.6368 1.9976 19.6829 2.1874 18.793 2.55615C17.903 2.9249 17.0945 3.46538 16.4135 4.1467L15.0001 5.56004L13.5868 4.1467C12.2112 2.77112 10.3455 1.99832 8.40012 1.99832C6.45474 1.99832 4.58904 2.77112 3.21345 4.1467C1.83786 5.52229 1.06506 7.38799 1.06506 9.33337C1.06506 11.2787 1.83786 13.1444 3.21345 14.52L4.62678 15.9334L15.0001 26.3067L25.3735 15.9334L26.7868 14.52C27.4681 13.839 28.0086 13.0305 28.3773 12.1405C28.7461 11.2506 28.9359 10.2967 28.9359 9.33337C28.9359 8.37005 28.7461 7.41618 28.3773 6.52623C28.0086 5.63629 27.4681 4.82771 26.7868 4.1467V4.1467Z" stroke="#9CA4B1" stroke-width="2" stroke-linecap="round" stroke-linejoin="round"/>
</svg>
