<svg width="17" height="18" viewBox="0 0 17 18" fill="none" xmlns="http://www.w3.org/2000/svg">
<path d="M16.08 8.28768L9.18747 15.1802C8.34309 16.0246 7.19786 16.4989 6.00372 16.4989C4.80959 16.4989 3.66436 16.0246 2.81997 15.1802C1.97559 14.3358 1.50122 13.1906 1.50122 11.9964C1.50122 10.8023 1.97559 9.65707 2.81997 8.81268L9.71247 1.92018C10.2754 1.35726 11.0389 1.04102 11.835 1.04102C12.6311 1.04102 13.3946 1.35726 13.9575 1.92018C14.5204 2.48311 14.8366 3.24659 14.8366 4.04268C14.8366 4.83878 14.5204 5.60226 13.9575 6.16518L7.05747 13.0577C6.77601 13.3391 6.39427 13.4973 5.99622 13.4973C5.59818 13.4973 5.21643 13.3391 4.93497 13.0577C4.65351 12.7762 4.49539 12.3945 4.49539 11.9964C4.49539 11.5984 4.65351 11.2166 4.93497 10.9352L11.3025 4.57518" stroke="#63686F" stroke-width="1.2" stroke-linecap="round" stroke-linejoin="round"/>
</svg>
