<svg width="61" height="65" viewBox="0 0 61 65" fill="none" xmlns="http://www.w3.org/2000/svg">
<path d="M27.9297 5.99665H33.1428C33.7011 5.99665 34.1533 5.54415 34.1533 4.98615C34.1533 4.42802 33.7011 3.97565 33.1428 3.97565H27.9297C27.3714 3.97565 26.9192 4.42815 26.9192 4.98615C26.9192 5.54415 27.3714 5.99665 27.9297 5.99665Z"/>
<path d="M60.589 24.5868L57.1119 10.2609C57.0774 10.1191 56.2316 6.77238 52.9066 5.35925C50.4999 4.3365 42.8884 1.44687 40.9826 0.72525C40.809 0.584625 40.588 0.5 40.3471 0.5H40.2024H20.7976C20.7653 0.5 20.7331 0.50175 20.7009 0.504875C20.687 0.50625 20.6734 0.508625 20.6596 0.5105C20.642 0.512875 20.6244 0.51525 20.6068 0.518625C20.5904 0.52175 20.5743 0.525875 20.5581 0.52975C20.5438 0.53325 20.5293 0.53675 20.5149 0.54075C20.4981 0.545625 20.4819 0.55125 20.4654 0.556875C20.457 0.559875 20.4485 0.562 20.4401 0.565125C20.0476 0.7135 10.7936 4.2115 8.09314 5.35925C4.89639 6.718 3.99189 9.8625 3.89627 10.2288C3.89452 10.2356 3.89302 10.2414 3.89164 10.2463C3.88989 10.2529 3.88864 10.2581 3.88802 10.2606L1.41702 20.4412L0.410768 24.5869C0.291893 25.0763 0.551643 25.5784 1.01977 25.7644L10.9535 29.7106V59.3814V63.4895C10.9535 64.0477 11.4059 64.5 11.964 64.5H49.0356C49.5939 64.5 50.0461 64.0477 50.0461 63.4895V59.3814V40.141C50.0461 39.5829 49.5939 39.1305 49.0356 39.1305C48.4774 39.1305 48.0251 39.583 48.0251 40.141V58.3708H23.1899C22.6316 58.3708 22.1794 58.8231 22.1794 59.3812C22.1794 59.9394 22.6316 60.3918 23.1899 60.3918H48.0253V62.4789H12.9748V60.3918H19.8215C20.3798 60.3918 20.832 59.9392 20.832 59.3812C20.832 58.823 20.3798 58.3708 19.8215 58.3708H12.9748V29.0245V24.6912V16.8608C12.9748 16.6764 12.9244 16.4956 12.829 16.3379L7.73277 7.90975C8.06177 7.64537 8.44314 7.40675 8.88402 7.21938C10.9529 6.34013 17.1566 3.97337 19.8656 2.94462C20.5155 8.91675 25.1539 13.7198 30.5725 13.7198C35.975 13.7198 40.6025 8.945 41.2739 2.99738C44.0508 4.05237 50.082 6.35475 52.1163 7.21925C52.5571 7.40663 52.9384 7.64525 53.2675 7.90963L48.1714 16.3376C48.076 16.4954 48.0256 16.6763 48.0256 16.8605V24.691V29.0244V36.7725C48.0256 37.3307 48.478 37.783 49.0361 37.783C49.5944 37.783 50.0466 37.3307 50.0466 36.7725V29.7103L59.9804 25.764C60.448 25.5783 60.7078 25.0761 60.589 24.5868ZM10.9538 27.5357L2.58214 24.21L3.10164 22.07L10.9536 25.3631L10.9538 27.5357ZM10.9538 17.1424V23.1715L3.58452 20.0809L5.85127 10.742C5.85414 10.7306 5.99177 10.2095 6.36302 9.55025L10.9538 17.1424ZM30.5724 11.6986C26.5783 11.6986 22.3178 8.053 21.8505 2.521H39.2945C38.827 8.05312 34.5665 11.6986 30.5724 11.6986ZM50.0464 17.1424L54.6373 9.55C54.8804 9.98163 55.0235 10.3539 55.0935 10.5614L55.0941 10.5632C55.1008 10.5829 55.1065 10.6007 55.1119 10.6173C55.1129 10.6204 55.1139 10.6236 55.1149 10.6266C55.119 10.6398 55.1228 10.6515 55.126 10.6624C55.1274 10.6665 55.1288 10.6711 55.1299 10.675C55.1326 10.6839 55.1349 10.6917 55.1369 10.6987C55.1379 10.702 55.1389 10.7059 55.1398 10.7087C55.1414 10.7144 55.1426 10.7188 55.1436 10.7227C55.1443 10.7251 55.1458 10.7303 55.1458 10.7303C55.1468 10.7338 55.1476 10.7375 55.1476 10.7375L57.4155 20.081L50.0463 23.1716L50.0464 17.1424ZM50.0464 27.5357V25.3631L57.8984 22.07L58.4178 24.2101L50.0464 27.5357Z"/>
</svg>
